<?xml version="1.0" encoding="utf-8"?>
<!-- Generator: Adobe Illustrator 16.0.0, SVG Export Plug-In . SVG Version: 6.00 Build 0)  -->
<!DOCTYPE svg PUBLIC "-//W3C//DTD SVG 1.1//EN" "http://www.w3.org/Graphics/SVG/1.1/DTD/svg11.dtd">
<svg version="1.1" id="Calque_1" xmlns="http://www.w3.org/2000/svg" xmlns:xlink="http://www.w3.org/1999/xlink" x="0px" y="0px"
	 width="595.28px" height="822.05px" viewBox="0 0 595.28 822.05" enable-background="new 0 0 595.28 822.05" xml:space="preserve">
<g>
	<path fill="#020202" d="M411.628,362.035c12.348,12.619,19.15,29.25,19.15,46.828c0,17.443-6.709,33.979-18.889,46.564
		c-12.043,12.51-28.467,19.875-45.822,20.549l-2.479,0.064l-2.102-0.006l-4.76,0.006v57.721c0,8.154-6.389,14.814-14.455,15.295
		l-0.055,0.01c-3.77,0.264-7.543,0.404-11.318,0.428c0,0-2.572,0.047-3.861,0.047c-43.135,0-83.785-9.51-114.459-36.193
		c-31.254-27.178-48.467-63.283-48.467-102.035s17.213-75.061,48.467-102.246c30.674-26.676,71.324-36.412,114.459-36.412
		c23.607,0,46.469,3.859,67.359,12.221l0.053,0.018c7.904,2.988,11.885,11.82,8.895,19.723c-0.006,0.021-0.012,0.043-0.023,0.063
		c-3.035,7.902-11.93,11.855-19.863,8.834l-0.053-0.023c-17.109-6.924-36.217-10.799-56.367-10.799
		c-77.678,0-132.176,46.297-132.176,108.623c0,61.559,54.816,109.104,129.383,107.068c0.953-0.105,1.68-0.902,1.691-1.863v-40.477
		l-31.514,0.004L292.552,476c-17.523-0.451-34.178-7.729-46.414-20.279c-12.359-12.627-19.17-29.262-19.17-46.852
		c0-37.043,30.262-67.18,67.455-67.18l0.742-0.004c8.5,0,15.414,6.887,15.414,15.348c0,8.465-6.914,15.35-15.414,15.35l-0.742-0.006
		c-20.205,0-36.641,16.371-36.641,36.492s16.439,36.486,36.641,36.486l1.836,0.018h29.678l0.006-88.389
		c0.045-8.373,6.861-15.186,15.27-15.26l22.113-0.014l1.924,0.025c17.518,0.465,34.158,7.748,46.381,20.299 M363.331,445.326
		c20.215,0,36.66-16.365,36.66-36.475c0-19.746-16.146-36.105-35.951-36.457h-3.51c-2.104,0.029-3.803,1.746-3.803,3.838v69.105
		l6.598-0.012"/>
</g>
</svg>
