<?xml version="1.0" encoding="UTF-8" standalone="no"?>
<svg
   version="1.1"
   viewBox="0 0 968.48596 422.13303"
   fill="none"
   stroke="none"
   stroke-linecap="square"
   stroke-miterlimit="10"
   width="968.48596"
   height="422.13303"
   id="svg5409"
   sodipodi:docname="chart2.svg"
   inkscape:export-filename="chart2.png"
   inkscape:export-xdpi="118.191"
   inkscape:export-ydpi="118.191"
   inkscape:version="1.2.2 (1:1.2.2+202305151914+b0a8486541)"
   xmlns:inkscape="http://www.inkscape.org/namespaces/inkscape"
   xmlns:sodipodi="http://sodipodi.sourceforge.net/DTD/sodipodi-0.dtd"
   xmlns="http://www.w3.org/2000/svg"
   xmlns:svg="http://www.w3.org/2000/svg">
  <defs
     id="defs5413" />
  <sodipodi:namedview
     id="namedview5411"
     pagecolor="#505050"
     bordercolor="#eeeeee"
     borderopacity="1"
     inkscape:showpageshadow="0"
     inkscape:pageopacity="0"
     inkscape:pagecheckerboard="0"
     inkscape:deskcolor="#505050"
     showgrid="false"
     inkscape:zoom="0.96130346"
     inkscape:cx="512.32521"
     inkscape:cy="251.74153"
     inkscape:window-width="1920"
     inkscape:window-height="1015"
     inkscape:window-x="1680"
     inkscape:window-y="0"
     inkscape:window-maximized="1"
     inkscape:current-layer="svg5409" />
  <path
     stroke="#333333"
     stroke-width="1.0"
     stroke-linecap="butt"
     d="M 301.45051,-0.02178773 V 397.47714"
     fill-rule="nonzero"
     id="path5334"
     style="fill:#666666;stroke-width:1.91745;stroke-dasharray:none" />
  <path
     stroke="#cccccc"
     stroke-width="0.913072"
     stroke-linecap="butt"
     d="M 589.98933,-0.02178773 V 397.47714"
     fill-rule="nonzero"
     id="path5338" />
  <path
     stroke="#cccccc"
     stroke-width="0.913072"
     stroke-linecap="butt"
     d="M 876.75801,-0.02178773 V 397.47714"
     fill-rule="nonzero"
     id="path5342" />
  <clipPath
     id="id_0">
    <path
       d="m 194.13,24.55 h 648.32 v 421.9 H 194.13 Z"
       clip-rule="nonzero"
       id="path5344" />
  </clipPath>
  <path
     stroke="#000000"
     stroke-width="2"
     stroke-linecap="butt"
     stroke-opacity="0"
     clip-path="url(#id_0)"
     d="M 194,104 V 53 h 638 c 1.10455,0 2,0.89543 2,2 v 47 c 0,1.10457 -0.89545,2 -2,2 z"
     fill-rule="nonzero"
     id="path5347"
     transform="matrix(0.88508842,0,0,0.94194061,131.07099,-23.099332)" />
  <path
     fill="#a6cee3"
     clip-path="url(#id_0)"
     d="M 194,104 V 53 h 638 c 1.10455,0 2,0.89543 2,2 v 47 c 0,1.10457 -0.89545,2 -2,2 z"
     fill-rule="nonzero"
     id="path5349"
     transform="matrix(0.88508842,0,0,0.94194061,131.07099,-23.099332)" />
  <path
     stroke="#000000"
     stroke-width="2"
     stroke-linecap="butt"
     stroke-opacity="0"
     clip-path="url(#id_0)"
     d="m 194,183 v -51 h 379 c 1.10455,0 2,0.89543 2,2 v 47 c 0,1.10457 -0.89545,2 -2,2 z"
     fill-rule="nonzero"
     id="path5351"
     transform="matrix(0.88508842,0,0,0.94194061,131.07099,-23.099332)" />
  <path
     fill="#a6cee3"
     clip-path="url(#id_0)"
     d="m 194,183 v -51 h 379 c 1.10455,0 2,0.89543 2,2 v 47 c 0,1.10457 -0.89545,2 -2,2 z"
     fill-rule="nonzero"
     id="path5353"
     style="fill:#339933;fill-opacity:1"
     transform="matrix(0.88508842,0,0,0.94194061,131.07099,-23.099332)" />
  <path
     stroke="#000000"
     stroke-width="2"
     stroke-linecap="butt"
     stroke-opacity="0"
     clip-path="url(#id_0)"
     d="m 194,262 v -51 h 371 c 1.10455,0 2,0.89543 2,2 v 47 c 0,1.10458 -0.89545,2 -2,2 z"
     fill-rule="nonzero"
     id="path5355"
     transform="matrix(0.88508842,0,0,0.94194061,131.07099,-23.099332)" />
  <path
     fill="#a6cee3"
     clip-path="url(#id_0)"
     d="m 194,262 v -51 h 371 c 1.10455,0 2,0.89543 2,2 v 47 c 0,1.10458 -0.89545,2 -2,2 z"
     fill-rule="nonzero"
     id="path5357"
     style="fill:#1f78b4;fill-opacity:1"
     transform="matrix(0.88508842,0,0,0.94194061,131.07099,-23.099332)" />
  <path
     stroke="#000000"
     stroke-width="2"
     stroke-linecap="butt"
     stroke-opacity="0"
     clip-path="url(#id_0)"
     d="m 194,340 v -51 h 39 c 1.10457,0 2,0.89542 2,2 v 47 c 0,1.10458 -0.89543,2 -2,2 z"
     fill-rule="nonzero"
     id="path5359"
     transform="matrix(0.88508842,0,0,0.94194061,131.07099,-23.099332)" />
  <path
     fill="#a6cee3"
     clip-path="url(#id_0)"
     d="m 194,340 v -51 h 39 c 1.10457,0 2,0.89542 2,2 v 47 c 0,1.10458 -0.89543,2 -2,2 z"
     fill-rule="nonzero"
     id="path5361"
     style="fill:#ff3333;fill-opacity:1"
     transform="matrix(0.88508842,0,0,0.94194061,131.07099,-23.099332)" />
  <path
     stroke="#000000"
     stroke-width="2"
     stroke-linecap="butt"
     stroke-opacity="0"
     clip-path="url(#id_0)"
     d="m 194,419 v -51 h 22 c 1.10457,0 2,0.89542 2,2 v 47 c 0,1.10458 -0.89543,2 -2,2 z"
     fill-rule="nonzero"
     id="path5363"
     transform="matrix(0.88508842,0,0,0.94194061,131.07099,-23.099332)" />
  <path
     fill="#a6cee3"
     clip-path="url(#id_0)"
     d="m 194,419 v -51 h 22 c 1.10457,0 2,0.89542 2,2 v 47 c 0,1.10458 -0.89543,2 -2,2 z"
     fill-rule="nonzero"
     id="path5365"
     style="fill:#ffa500;fill-opacity:1"
     transform="matrix(0.88508842,0,0,0.94194061,131.07099,-23.099332)" />
  <path
     stroke="#a6cee3"
     stroke-width="2.73921"
     stroke-linejoin="round"
     stroke-linecap="round"
     d="M 858.40551,47.148832 855.28,54.610768 h -1.00955 l 3.11161,-7.197015 h -4.07968 v -0.838916 h 5.10313 z m 4.99242,3.929659 q -0.29039,0.382662 -0.71913,0.618148 -0.41488,0.220767 -0.91274,0.220767 -0.64997,0 -1.13403,-0.338509 -0.48405,-0.338511 -0.74679,-0.956659 -0.26275,-0.632867 -0.26275,-1.383476 0,-0.794761 0.2766,-1.442346 0.2904,-0.647584 0.81591,-0.986094 0.53933,-0.353228 1.24466,-0.353228 1.12016,0 1.75638,0.897787 0.64996,0.897788 0.64996,2.428441 v 0.294356 q 0,2.354852 -0.87124,3.429253 -0.87129,1.074401 -2.62764,1.103837 h -0.19358 v -0.853634 h 0.20743 q 1.18932,-0.02943 1.82549,-0.662303 0.63615,-0.632865 0.69147,-2.01634 z m -1.47978,0 q 0.48405,0 0.8851,-0.309074 0.41492,-0.323792 0.60849,-0.780046 v -0.412098 q 0,-1.000813 -0.41485,-1.633678 -0.41491,-0.632867 -1.03723,-0.632867 -0.63616,0 -1.02339,0.515124 -0.37336,0.515123 -0.37336,1.368757 0,0.824198 0.35952,1.354039 0.37341,0.529843 0.99572,0.529843 z"
     fill-rule="nonzero"
     id="path5367" />
  <text
     xml:space="preserve"
     style="font-size:21.33333313px;line-height:125%;font-family:sans-serif;text-align:center;letter-spacing:0px;word-spacing:0px;text-anchor:middle;fill:#000000;stroke:#000000;stroke-width:0.913072px;stroke-linecap:butt;stroke-linejoin:miter;stroke-opacity:1"
     x="869.64978"
     y="56.838497"
     id="text12164"
     transform="scale(0.96935211,1.0316169)"><tspan
       sodipodi:role="line"
       id="tspan12162"
       x="869.64978"
       y="56.838497"
       style="stroke-width:0.913072px;font-size:21.33333313px">79</tspan></text>
  <text
     xml:space="preserve"
     style="font-size:21.33333313px;line-height:125%;font-family:sans-serif;text-align:center;letter-spacing:0px;word-spacing:0px;text-anchor:middle;fill:#000000;stroke:#000000;stroke-width:0.913072px;stroke-linecap:butt;stroke-linejoin:miter;stroke-opacity:1"
     x="623.86835"
     y="129.28322"
     id="text12168"
     transform="scale(0.96935211,1.0316169)"><tspan
       sodipodi:role="line"
       id="tspan12166"
       x="623.86835"
       y="129.28322"
       style="stroke-width:0.913072px;font-size:21.33333313px">47</tspan></text>
  <text
     xml:space="preserve"
     style="font-size:21.33333313px;line-height:125%;font-family:sans-serif;text-align:center;letter-spacing:0px;word-spacing:0px;text-anchor:middle;fill:#000000;stroke:#000000;stroke-width:0.913072px;stroke-linecap:butt;stroke-linejoin:miter;stroke-opacity:1"
     x="622.95276"
     y="200.26668"
     id="text12168-7"
     transform="scale(0.96935211,1.0316169)"><tspan
       sodipodi:role="line"
       id="tspan12166-5"
       x="622.95276"
       y="200.26668"
       style="stroke-width:0.913072px;font-size:21.33333313px">46</tspan></text>
  <text
     xml:space="preserve"
     style="font-size:21.33333313px;line-height:125%;font-family:sans-serif;text-align:center;letter-spacing:0px;word-spacing:0px;text-anchor:middle;fill:#000000;stroke:#000000;stroke-width:0.913072px;stroke-linecap:butt;stroke-linejoin:miter;stroke-opacity:1"
     x="332.29172"
     y="272.50925"
     id="text12168-7-3"
     transform="scale(0.96935211,1.0316169)"><tspan
       sodipodi:role="line"
       id="tspan12166-5-5"
       x="332.29172"
       y="272.50925"
       style="stroke-width:0.913072px;font-size:21.33333313px">5</tspan><tspan
       sodipodi:role="line"
       x="332.29172"
       y="298.18936"
       id="tspan12224"
       style="stroke-width:0.913072px;font-size:21.33333313px" /></text>
  <text
     xml:space="preserve"
     style="font-size:21.33333313px;line-height:125%;font-family:sans-serif;text-align:center;letter-spacing:0px;word-spacing:0px;text-anchor:middle;fill:#000000;stroke:#000000;stroke-width:0.913072px;stroke-linecap:butt;stroke-linejoin:miter;stroke-opacity:1"
     x="323.33804"
     y="345.79636"
     id="text12228"
     transform="scale(0.96935211,1.0316169)"><tspan
       sodipodi:role="line"
       id="tspan12226"
       x="323.33804"
       y="345.79636"
       style="stroke-width:0.913072px;font-size:21.33333313px">3</tspan></text>
  <text
     xml:space="preserve"
     style="font-size:21.33333313px;line-height:125%;font-family:sans-serif;text-align:center;letter-spacing:0px;word-spacing:0px;text-anchor:middle;fill:#000000;stroke:#000000;stroke-width:0.913072px;stroke-linecap:butt;stroke-linejoin:miter;stroke-opacity:1"
     x="607.76202"
     y="408.45334"
     id="text12232"
     transform="scale(0.96935211,1.0316169)"><tspan
       sodipodi:role="line"
       id="tspan12230"
       x="607.76202"
       y="408.45334"
       style="stroke-width:0.913072px;font-size:21.33333313px">0                                           40                                         80</tspan></text>
  <text
     xml:space="preserve"
     style="font-size:21.3333px;line-height:175.8%;font-family:sans-serif;text-align:end;letter-spacing:0px;word-spacing:0px;writing-mode:lr-tb;text-anchor:end;fill:#000000;stroke:#000000;stroke-width:0.938346px;stroke-linecap:butt;stroke-linejoin:miter;stroke-opacity:1"
     x="292.59656"
     y="57.956116"
     id="text12360"
     transform="scale(0.99641133,1.0036016)"><tspan
       sodipodi:role="line"
       id="tspan12358"
       x="292.59656"
       y="57.956116"
       dx="0 0 0 0 0 0 0 0"
       style="font-style:normal;font-variant:normal;font-weight:normal;font-stretch:normal;font-size:21.3333px;font-family:sans-serif;-inkscape-font-specification:sans-serif;fill:#000000;stroke-width:0.938346px">Protégées</tspan><tspan
       sodipodi:role="line"
       x="292.59656"
       y="95.46006"
       id="tspan12362"
       style="font-style:normal;font-variant:normal;font-weight:normal;font-stretch:normal;font-size:21.3333px;font-family:sans-serif;-inkscape-font-specification:sans-serif;fill:#000000;stroke-width:0.938346px" /><tspan
       sodipodi:role="line"
       x="292.59656"
       y="132.964"
       id="tspan12364"
       style="font-style:normal;font-variant:normal;font-weight:normal;font-stretch:normal;font-size:21.3333px;font-family:sans-serif;-inkscape-font-specification:sans-serif;fill:#000000;stroke-width:0.938346px">Déterminantes</tspan><tspan
       sodipodi:role="line"
       x="292.59656"
       y="170.46794"
       id="tspan12366"
       style="font-style:normal;font-variant:normal;font-weight:normal;font-stretch:normal;font-size:21.3333px;font-family:sans-serif;-inkscape-font-specification:sans-serif;fill:#000000;stroke-width:0.938346px" /><tspan
       sodipodi:role="line"
       x="292.59656"
       y="207.97188"
       id="tspan12368"
       style="font-style:normal;font-variant:normal;font-weight:normal;font-stretch:normal;font-size:21.3333px;font-family:sans-serif;-inkscape-font-specification:sans-serif;fill:#000000;stroke-width:0.938346px">Protégées et déterminantes</tspan><tspan
       sodipodi:role="line"
       x="292.59656"
       y="245.47581"
       id="tspan12370"
       style="font-style:normal;font-variant:normal;font-weight:normal;font-stretch:normal;font-size:21.3333px;font-family:sans-serif;-inkscape-font-specification:sans-serif;fill:#000000;stroke-width:0.938346px" /><tspan
       sodipodi:role="line"
       x="292.59656"
       y="282.97977"
       id="tspan12372"
       style="font-style:normal;font-variant:normal;font-weight:normal;font-stretch:normal;font-size:21.3333px;font-family:sans-serif;-inkscape-font-specification:sans-serif;fill:#000000;stroke-width:0.938346px">Menacées</tspan><tspan
       sodipodi:role="line"
       x="292.59656"
       y="320.4837"
       id="tspan12374"
       style="font-style:normal;font-variant:normal;font-weight:normal;font-stretch:normal;font-size:21.3333px;font-family:sans-serif;-inkscape-font-specification:sans-serif;fill:#000000;stroke-width:0.938346px" /><tspan
       sodipodi:role="line"
       x="292.59656"
       y="357.98764"
       id="tspan12376"
       style="font-style:normal;font-variant:normal;font-weight:normal;font-stretch:normal;font-size:21.3333px;font-family:sans-serif;-inkscape-font-specification:sans-serif;fill:#000000;stroke-width:0.938346px">Menacées et protégées</tspan></text>
</svg>
