<?xml version="1.0" encoding="UTF-8" standalone="no"?>
<svg
   version="1.0"
   width="158.41133mm"
   height="95.334669mm"
   id="svg127"
   xmlns="http://www.w3.org/2000/svg"
   xmlns:svg="http://www.w3.org/2000/svg">
  <defs
     id="defs3">
    <pattern
       id="WMFhbasepattern"
       patternUnits="userSpaceOnUse"
       width="6"
       height="6"
       x="0"
       y="0" />
  </defs>
  <path
     style="fill:none;stroke:#b3b3b3;stroke-width:1.12px;stroke-linecap:butt;stroke-linejoin:round;stroke-miterlimit:5;stroke-dasharray:none;stroke-opacity:1;"
     d="  M 83.76,7.2   L 83.76,327.12  "
     id="path5" />
  <path
     style="fill:none;stroke:#b3b3b3;stroke-width:1.12px;stroke-linecap:butt;stroke-linejoin:round;stroke-miterlimit:5;stroke-dasharray:none;stroke-opacity:1;"
     d="  M 182.96,7.2   L 182.96,327.12  "
     id="path7" />
  <path
     style="fill:none;stroke:#b3b3b3;stroke-width:1.12px;stroke-linecap:butt;stroke-linejoin:round;stroke-miterlimit:5;stroke-dasharray:none;stroke-opacity:1;"
     d="  M 282.16,7.2   L 282.16,327.12  "
     id="path9" />
  <path
     style="fill:none;stroke:#b3b3b3;stroke-width:1.12px;stroke-linecap:butt;stroke-linejoin:round;stroke-miterlimit:5;stroke-dasharray:none;stroke-opacity:1;"
     d="  M 381.36,7.2   L 381.36,327.12  "
     id="path11" />
  <path
     style="fill:none;stroke:#b3b3b3;stroke-width:1.12px;stroke-linecap:butt;stroke-linejoin:round;stroke-miterlimit:5;stroke-dasharray:none;stroke-opacity:1;"
     d="  M 480.56,7.2   L 480.56,327.12  "
     id="path13" />
  <path
     style="fill:none;stroke:#b3b3b3;stroke-width:1.12px;stroke-linecap:butt;stroke-linejoin:round;stroke-miterlimit:5;stroke-dasharray:none;stroke-opacity:1;"
     d="  M 78.16,247.12   L 83.76,247.12  "
     id="path15" />
  <path
     style="fill:none;stroke:#b3b3b3;stroke-width:1.12px;stroke-linecap:butt;stroke-linejoin:round;stroke-miterlimit:5;stroke-dasharray:none;stroke-opacity:1;"
     d="  M 78.16,247.12   L 83.76,247.12  "
     id="path17" />
  <path
     style="fill:none;stroke:#b3b3b3;stroke-width:1.12px;stroke-linecap:butt;stroke-linejoin:round;stroke-miterlimit:5;stroke-dasharray:none;stroke-opacity:1;"
     d="  M 78.16,167.12   L 83.76,167.12  "
     id="path19" />
  <path
     style="fill:none;stroke:#b3b3b3;stroke-width:1.12px;stroke-linecap:butt;stroke-linejoin:round;stroke-miterlimit:5;stroke-dasharray:none;stroke-opacity:1;"
     d="  M 78.16,167.12   L 83.76,167.12  "
     id="path21" />
  <path
     style="fill:none;stroke:#b3b3b3;stroke-width:1.12px;stroke-linecap:butt;stroke-linejoin:round;stroke-miterlimit:5;stroke-dasharray:none;stroke-opacity:1;"
     d="  M 78.16,87.12   L 83.76,87.12  "
     id="path23" />
  <path
     style="fill:none;stroke:#b3b3b3;stroke-width:1.12px;stroke-linecap:butt;stroke-linejoin:round;stroke-miterlimit:5;stroke-dasharray:none;stroke-opacity:1;"
     d="  M 78.16,87.12   L 83.76,87.12  "
     id="path25" />
  <path
     style="fill:none;stroke:#b3b3b3;stroke-width:1.12px;stroke-linecap:butt;stroke-linejoin:round;stroke-miterlimit:5;stroke-dasharray:none;stroke-opacity:1;"
     d="  M 78.16,7.2   L 83.76,7.2  "
     id="path27" />
  <path
     style="fill:none;stroke:#b3b3b3;stroke-width:1.12px;stroke-linecap:butt;stroke-linejoin:round;stroke-miterlimit:5;stroke-dasharray:none;stroke-opacity:1;"
     d="  M 78.16,7.2   L 83.76,7.2  "
     id="path29" />
  <path
     style="fill:none;stroke:#b3b3b3;stroke-width:1.12px;stroke-linecap:butt;stroke-linejoin:round;stroke-miterlimit:5;stroke-dasharray:none;stroke-opacity:1;"
     d="  M 83.76,327.12   L 83.76,7.2  "
     id="path31" />
  <path
     style="fill:#ff3333;fill-rule:evenodd;fill-opacity:1;stroke:none;"
     d="  M 83.76,67.12   L 83.76,27.12   L 480.56,27.12   L 480.56,67.12   L 83.76,67.12  z "
     id="path33" />
  <path
     style="fill:#a6cee3;fill-rule:evenodd;fill-opacity:1;stroke:none;"
     d="  M 83.76,147.12   L 83.76,107.12   L 361.52,107.12   L 361.52,147.12   L 83.76,147.12  z "
     id="path35" />
  <path
     style="fill:#ffa500;fill-rule:evenodd;fill-opacity:1;stroke:none;"
     d="  M 83.76,227.12   L 83.76,187.12   L 202.8,187.12   L 202.8,227.12   L 83.76,227.12  z "
     id="path37" />
  <path
     style="fill:#339933;fill-rule:evenodd;fill-opacity:1;stroke:none;"
     d="  M 83.76,307.12   L 83.76,267.12   L 103.6,267.12   L 103.6,307.12   L 83.76,307.12  z "
     id="path39" />
  <path
     style="fill:#000000;fill-rule:evenodd;fill-opacity:1;stroke:none;"
     d="  M 0.56,292   L 0.56,282.24   L 8.8,282.24   L 8.8,283.28   L 2.08,283.28   L 2.08,286.4   L 8.4,286.4   L 8.4,287.52   L 2.08,287.52   L 2.08,290.88   L 9.12,290.88   L 9.12,292   L 0.56,292  z "
     id="path41" />
  <path
     style="fill:#000000;fill-rule:evenodd;fill-opacity:1;stroke:none;"
     d="  M 15.76,292   L 15.76,287.2   L 15.68,286.24   L 15.44,285.76   L 15.04,285.36   L 14.24,285.36   L 13.44,285.44   L 12.8,285.92   L 12.4,286.64   L 12.32,287.6   L 12.32,292   L 10.96,292   L 10.96,286.08   L 10.88,284.96   L 10.88,284.48   L 12.16,284.48   L 12.16,284.56   L 12.24,284.72   L 12.24,284.88   L 12.24,285.04   L 12.24,285.28   L 12.24,285.76   L 12.24,285.76   L 12.72,285.04   L 13.28,284.64   L 13.92,284.4   L 14.72,284.4   L 15.6,284.4   L 16.24,284.72   L 16.72,285.12   L 16.96,285.76   L 17.04,285.76   L 17.44,285.12   L 18.08,284.72   L 18.72,284.4   L 19.52,284.4   L 20.16,284.4   L 21.04,284.72   L 21.36,284.96   L 21.68,285.28   L 21.92,286.32   L 22,286.96   L 22,292   L 20.56,292   L 20.56,287.2   L 20.56,286.24   L 20.24,285.76   L 19.84,285.36   L 19.04,285.36   L 18.24,285.44   L 17.6,285.92   L 17.2,286.64   L 17.12,287.6   L 17.12,292   L 15.76,292  z "
     id="path43" />
  <path
     style="fill:#000000;fill-rule:evenodd;fill-opacity:1;stroke:none;"
     d="  M 25.12,288.48   L 25.2,289.68   L 25.76,290.48   L 26.08,290.8   L 26.96,291.12   L 27.44,291.2   L 28.32,291.12   L 28.88,290.88   L 29.44,290.48   L 29.68,290   L 30.88,290.32   L 30.4,291.12   L 28.72,292   L 27.44,292.08   L 26.56,292.08   L 25.2,291.6   L 24.64,291.12   L 24.24,290.56   L 23.68,289.12   L 23.68,288.16   L 23.68,287.28   L 24.24,285.84   L 24.64,285.36   L 25.2,284.88   L 26.56,284.4   L 27.44,284.4   L 28.32,284.4   L 29.68,284.88   L 30.64,285.92   L 31.04,287.36   L 31.12,288.32   L 31.12,288.48  z    M 29.68,287.52   L 29.44,286.48   L 28.96,285.84   L 28.32,285.36   L 27.36,285.28   L 26.48,285.36   L 25.76,285.92   L 25.28,286.56   L 25.12,287.52  z   "
     id="path45" />
  <path
     style="fill:#000000;fill-rule:evenodd;fill-opacity:1;stroke:none;"
     d="  M 32.88,292   L 32.88,286.24   L 32.88,285.44   L 32.88,284.48   L 34.16,284.48   L 34.24,285.6   L 34.24,286   L 34.24,286   L 34.64,285.2   L 35.04,284.72   L 35.52,284.4   L 36.24,284.4   L 36.56,284.4   L 36.8,284.4   L 36.8,285.6   L 36.48,285.52   L 36.08,285.52   L 35.68,285.52   L 34.96,285.84   L 34.72,286.16   L 34.4,286.96   L 34.32,288.08   L 34.32,292   L 32.88,292  z "
     id="path47" />
  <path
     style="fill:#000000;fill-rule:evenodd;fill-opacity:1;stroke:none;"
     d="  M 41.28,294.88   L 40,294.8   L 39.12,294.4   L 38.4,293.84   L 38.08,293.04   L 39.52,292.88   L 39.68,293.36   L 40.08,293.68   L 40.64,293.92   L 41.36,293.92   L 42.32,293.84   L 43.36,292.8   L 43.44,291.76   L 43.44,290.56   L 43.44,290.56   L 42.96,291.2   L 42.32,291.68   L 41.6,291.92   L 40.72,292   L 40,292   L 38.88,291.52   L 38.48,291.12   L 38.16,290.64   L 37.76,289.2   L 37.76,288.24   L 37.76,287.28   L 38.16,285.84   L 38.48,285.36   L 38.96,284.88   L 40.08,284.4   L 40.88,284.4   L 41.76,284.48   L 42.4,284.72   L 43.04,285.12   L 43.44,285.76   L 43.44,285.76   L 43.44,285.52   L 43.44,285.04   L 43.52,284.64   L 43.52,284.48   L 44.88,284.48   L 44.8,285.04   L 44.8,286.08   L 44.8,291.76   L 44.8,292.48   L 44.32,293.68   L 43.44,294.48   L 42.16,294.88  z    M 43.44,288.24   L 43.36,287.36   L 43.12,286.64   L 42.8,286.08   L 42.32,285.68   L 41.84,285.36   L 41.2,285.28   L 40.72,285.36   L 39.92,285.68   L 39.68,286   L 39.28,286.8   L 39.2,288.24   L 39.28,289.6   L 39.6,290.4   L 39.92,290.72   L 40.64,291.04   L 41.2,291.12   L 41.84,291.04   L 42.32,290.72   L 42.8,290.4   L 43.12,289.76   L 43.36,289.12  z   "
     id="path49" />
  <path
     style="fill:#000000;fill-rule:evenodd;fill-opacity:1;stroke:none;"
     d="  M 48,288.48   L 48.08,289.68   L 48.64,290.48   L 48.96,290.8   L 49.76,291.12   L 50.32,291.2   L 51.2,291.12   L 51.76,290.88   L 52.24,290.48   L 52.56,290   L 53.76,290.32   L 53.28,291.12   L 51.6,292   L 50.32,292.08   L 49.44,292.08   L 48,291.6   L 47.52,291.12   L 47.04,290.56   L 46.56,289.12   L 46.56,288.16   L 46.56,287.28   L 47.04,285.84   L 47.52,285.36   L 48,284.88   L 49.44,284.4   L 50.32,284.4   L 51.2,284.4   L 52.56,284.88   L 53.44,285.92   L 53.92,287.36   L 54,288.32   L 54,288.48  z    M 52.56,287.52   L 52.32,286.48   L 51.84,285.84   L 51.2,285.36   L 50.24,285.28   L 49.36,285.36   L 48.64,285.92   L 48.16,286.56   L 48,287.52  z   "
     id="path51" />
  <path
     style="fill:#000000;fill-rule:evenodd;fill-opacity:1;stroke:none;"
     d="  M 61.04,292   L 61.04,287.2   L 61.04,286.56   L 60.88,286.08   L 60.72,285.68   L 60.4,285.52   L 59.92,285.36   L 59.36,285.36   L 58.4,285.44   L 57.76,285.92   L 57.28,286.64   L 57.2,287.6   L 57.2,292   L 55.76,292   L 55.76,286.08   L 55.76,284.96   L 55.76,284.48   L 57.04,284.48   L 57.04,284.56   L 57.04,284.72   L 57.04,284.88   L 57.04,285.04   L 57.12,285.28   L 57.12,285.76   L 57.12,285.76   L 57.6,285.04   L 58.24,284.72   L 58.88,284.4   L 59.76,284.4   L 60.48,284.4   L 61.44,284.72   L 61.84,284.96   L 62.08,285.28   L 62.4,286.32   L 62.48,286.96   L 62.48,292   L 61.04,292  z "
     id="path53" />
  <path
     style="fill:#000000;fill-rule:evenodd;fill-opacity:1;stroke:none;"
     d="  M 67.76,291.92   L 67.04,292.08   L 66.32,292.08   L 65.6,292   L 64.72,291.12   L 64.64,290.4   L 64.64,285.44   L 63.68,285.44   L 63.68,284.48   L 64.72,284.48   L 65.12,282.8   L 66.08,282.8   L 66.08,284.48   L 67.6,284.48   L 67.6,285.44   L 66.08,285.44   L 66.08,290.08   L 66.08,290.64   L 66.24,290.88   L 66.48,291.04   L 66.96,291.12   L 67.28,291.04   L 67.76,290.96   L 67.76,291.92  z "
     id="path55" />
  <path
     style="fill:#000000;fill-rule:evenodd;fill-opacity:1;stroke:none;"
     d="  M 70,288.48   L 70.08,289.68   L 70.56,290.48   L 70.88,290.8   L 71.76,291.12   L 72.32,291.2   L 73.2,291.12   L 73.76,290.88   L 74.24,290.48   L 74.56,290   L 75.76,290.32   L 75.28,291.12   L 73.6,292   L 72.32,292.08   L 71.44,292.08   L 70,291.6   L 69.52,291.12   L 69.04,290.56   L 68.56,289.12   L 68.56,288.16   L 68.56,287.28   L 69.04,285.84   L 69.52,285.36   L 70,284.88   L 71.44,284.4   L 72.24,284.4   L 73.2,284.4   L 74.56,284.88   L 75.44,285.92   L 75.92,287.36   L 76,288.32   L 76,288.48  z    M 74.56,287.52   L 74.32,286.48   L 73.84,285.84   L 73.2,285.36   L 72.24,285.28   L 71.28,285.36   L 70.64,285.92   L 70.16,286.56   L 70,287.52  z   "
     id="path57" />
  <path
     style="fill:#000000;fill-rule:evenodd;fill-opacity:1;stroke:none;"
     d="  M 30,211.92   L 30,205.44   L 30,204.4   L 30.08,203.36   L 29.68,204.56   L 29.36,205.36   L 26.56,211.92   L 25.52,211.92   L 22.72,205.36   L 22.24,204.16   L 22,203.36   L 22,204.16   L 22.08,205.44   L 22.08,211.92   L 20.72,211.92   L 20.72,202.24   L 22.72,202.24   L 25.6,208.96   L 25.76,209.36   L 25.84,209.84   L 26,210.24   L 26.08,210.48   L 26.16,210.16   L 26.32,209.68   L 26.48,209.2   L 26.56,208.96   L 29.44,202.24   L 31.36,202.24   L 31.36,211.92   L 30,211.92  z "
     id="path59" />
  <path
     style="fill:#000000;fill-rule:evenodd;fill-opacity:1;stroke:none;"
     d="  M 35.84,212.08   L 35.2,212.08   L 34.24,211.76   L 33.92,211.52   L 33.6,211.2   L 33.36,210.4   L 33.28,209.84   L 33.36,209.28   L 33.76,208.4   L 34.16,208.08   L 34.64,207.76   L 36,207.44   L 36.88,207.44   L 38.8,207.36   L 38.8,206.96   L 38.72,206.16   L 38.32,205.68   L 37.84,205.36   L 36.96,205.28   L 36.16,205.36   L 35.6,205.6   L 35.28,205.92   L 35.12,206.48   L 33.68,206.4   L 33.76,205.84   L 34.32,205.12   L 35.6,204.4   L 37.04,204.32   L 37.76,204.4   L 38.96,204.72   L 39.36,204.96   L 39.76,205.36   L 40.16,206.24   L 40.16,206.88   L 40.16,210.08   L 40.24,210.56   L 40.32,210.88   L 40.56,211.12   L 40.96,211.2   L 41.2,211.2   L 41.44,211.12   L 41.44,211.92   L 40.88,212   L 40.32,212   L 39.68,211.92   L 39.2,211.68   L 38.96,211.2   L 38.8,210.56   L 38.8,210.56   L 38.24,211.28   L 37.52,211.76   L 36.8,212  z    M 36.16,211.12   L 36.88,211.12   L 37.52,210.88   L 38.08,210.48   L 38.4,210   L 38.72,209.44   L 38.8,208.88   L 38.8,208.24   L 37.28,208.32   L 36.32,208.32   L 35.76,208.48   L 35.28,208.64   L 34.96,208.96   L 34.8,209.36   L 34.72,209.92   L 34.8,210.48   L 35.12,210.8   L 35.52,211.12  z   "
     id="path61" />
  <path
     style="fill:#000000;fill-rule:evenodd;fill-opacity:1;stroke:none;"
     d="  M 42.48,202.88   L 42.48,201.68   L 43.84,201.68   L 43.84,202.88  z    M 43.84,212.88   L 43.76,213.84   L 43.44,214.4   L 42.88,214.8   L 42,214.88   L 41.44,214.88   L 41.04,214.8   L 41.04,213.84   L 41.52,213.92   L 42,213.84   L 42.24,213.68   L 42.48,213.36   L 42.48,212.72   L 42.48,204.48   L 43.84,204.48  z   "
     id="path63" />
  <path
     style="fill:#000000;fill-rule:evenodd;fill-opacity:1;stroke:none;"
     d="  M 47.04,208.48   L 47.2,209.68   L 47.68,210.48   L 48,210.8   L 48.88,211.12   L 49.44,211.12   L 50.24,211.12   L 50.88,210.8   L 51.36,210.48   L 51.6,210   L 52.8,210.32   L 52.32,211.12   L 50.64,212   L 49.44,212.08   L 48.48,212.08   L 47.12,211.52   L 46.56,211.12   L 46.16,210.56   L 45.68,209.12   L 45.6,208.16   L 45.68,207.28   L 46.16,205.84   L 46.56,205.36   L 47.12,204.88   L 48.48,204.4   L 49.36,204.32   L 50.24,204.4   L 51.6,204.88   L 52.56,205.84   L 52.96,207.36   L 53.04,208.32   L 53.04,208.48  z    M 51.6,207.52   L 51.44,206.48   L 50.96,205.84   L 50.32,205.36   L 49.36,205.28   L 48.4,205.36   L 47.68,205.84   L 47.2,206.56   L 47.12,207.52  z   "
     id="path65" />
  <path
     style="fill:#000000;fill-rule:evenodd;fill-opacity:1;stroke:none;"
     d="  M 56.16,204.48   L 56.16,209.2   L 56.16,209.92   L 56.32,210.4   L 56.48,210.72   L 56.88,210.96   L 57.28,211.12   L 57.92,211.12   L 58.8,211.04   L 59.44,210.48   L 59.92,209.84   L 60.08,208.8   L 60.08,204.48   L 61.44,204.48   L 61.44,210.32   L 61.44,211.52   L 61.52,211.92   L 60.16,211.92   L 60.16,211.92   L 60.16,211.76   L 60.16,211.6   L 60.16,211.44   L 60.16,211.12   L 60.08,210.64   L 60.08,210.64   L 59.6,211.36   L 58.96,211.76   L 58.32,212   L 57.44,212.08   L 56.72,212.08   L 55.76,211.76   L 55.36,211.44   L 55.12,211.12   L 54.8,210.16   L 54.8,209.44   L 54.8,204.48   L 56.16,204.48  z "
     id="path67" />
  <path
     style="fill:#000000;fill-rule:evenodd;fill-opacity:1;stroke:none;"
     d="  M 63.6,211.92   L 63.6,206.24   L 63.6,205.44   L 63.6,204.48   L 64.88,204.48   L 64.96,205.6   L 64.96,206   L 64.96,206   L 65.36,205.12   L 65.76,204.72   L 66.24,204.4   L 66.96,204.32   L 67.28,204.32   L 67.52,204.4   L 67.52,205.52   L 67.2,205.52   L 66.8,205.52   L 66.4,205.52   L 65.76,205.84   L 65.44,206.16   L 65.12,206.88   L 65.04,208.08   L 65.04,211.92   L 63.6,211.92  z "
     id="path69" />
  <path
     style="fill:#000000;fill-rule:evenodd;fill-opacity:1;stroke:none;"
     d="  M 69.92,208.48   L 70,209.68   L 70.56,210.48   L 70.88,210.8   L 71.76,211.12   L 72.24,211.12   L 73.12,211.12   L 73.68,210.8   L 74.24,210.48   L 74.48,210   L 75.68,210.32   L 75.2,211.12   L 73.52,212   L 72.24,212.08   L 71.36,212.08   L 70,211.52   L 69.44,211.12   L 69.04,210.56   L 68.48,209.12   L 68.48,208.16   L 68.48,207.28   L 69.04,205.84   L 69.44,205.36   L 70,204.88   L 71.36,204.4   L 72.24,204.32   L 73.12,204.4   L 74.48,204.88   L 75.44,205.84   L 75.84,207.36   L 75.92,208.32   L 75.92,208.48  z    M 74.48,207.52   L 74.24,206.48   L 73.76,205.84   L 73.12,205.36   L 72.16,205.28   L 71.28,205.36   L 70.56,205.84   L 70.08,206.56   L 69.92,207.52  z   "
     id="path71" />
  <path
     style="fill:#000000;fill-rule:evenodd;fill-opacity:1;stroke:none;"
     d="  M 25.28,132   L 25.28,125.52   L 25.28,124.4   L 25.28,123.44   L 24.96,124.56   L 24.64,125.36   L 21.84,132   L 20.8,132   L 17.92,125.36   L 17.52,124.16   L 17.28,123.44   L 17.28,124.16   L 17.28,125.52   L 17.28,132   L 16,132   L 16,122.24   L 17.92,122.24   L 20.8,128.96   L 20.96,129.44   L 21.12,129.84   L 21.28,130.32   L 21.28,130.56   L 21.36,130.24   L 21.6,129.68   L 21.76,129.2   L 21.84,128.96   L 24.72,122.24   L 26.56,122.24   L 26.56,132   L 25.28,132  z "
     id="path73" />
  <path
     style="fill:#000000;fill-rule:evenodd;fill-opacity:1;stroke:none;"
     d="  M 36,128.24   L 36,129.2   L 35.52,130.64   L 35.04,131.12   L 34.56,131.6   L 33.12,132.08   L 32.24,132.08   L 31.36,132.08   L 30,131.6   L 29.44,131.12   L 29.04,130.56   L 28.56,129.12   L 28.56,128.24   L 28.56,127.28   L 29.04,125.84   L 30,124.88   L 31.36,124.4   L 32.32,124.4   L 33.2,124.4   L 34.64,124.88   L 35.12,125.28   L 35.52,125.84   L 36,127.28  z    M 34.56,128.24   L 34.48,126.8   L 34,126   L 33.76,125.68   L 32.88,125.28   L 32.32,125.28   L 31.76,125.28   L 30.88,125.68   L 30.56,126   L 30.08,126.88   L 30,128.24   L 30.08,129.6   L 30.56,130.48   L 30.8,130.8   L 31.68,131.2   L 32.24,131.2   L 32.8,131.2   L 33.68,130.8   L 34,130.48   L 34.48,129.6  z   "
     id="path75" />
  <path
     style="fill:#000000;fill-rule:evenodd;fill-opacity:1;stroke:none;"
     d="  M 43.04,130.8   L 42.56,131.44   L 42,131.76   L 41.28,132.08   L 40.4,132.08   L 39.68,132.08   L 38.48,131.6   L 38.08,131.12   L 37.76,130.64   L 37.36,129.2   L 37.36,128.24   L 37.36,127.36   L 37.76,125.84   L 38.56,124.88   L 39.68,124.4   L 40.4,124.4   L 41.28,124.4   L 42,124.64   L 42.56,125.04   L 43.04,125.68   L 43.04,125.68   L 43.04,124.8   L 43.04,121.76   L 44.4,121.76   L 44.4,130.4   L 44.4,131.44   L 44.48,132   L 43.12,132   L 43.12,131.84   L 43.04,131.44   L 43.04,131.12   L 43.04,130.8  z    M 38.8,128.24   L 38.88,129.68   L 39.28,130.48   L 39.52,130.8   L 40.24,131.12   L 40.8,131.12   L 41.36,131.12   L 42.16,130.72   L 42.48,130.4   L 42.96,129.52   L 43.04,128.16   L 42.96,126.8   L 42.48,126   L 42.16,125.68   L 41.36,125.28   L 40.8,125.28   L 40.32,125.28   L 39.52,125.68   L 39.28,126   L 38.88,126.8  z   "
     id="path77" />
  <path
     style="fill:#000000;fill-rule:evenodd;fill-opacity:1;stroke:none;"
     d="  M 47.6,128.48   L 47.68,129.68   L 48.16,130.48   L 48.48,130.8   L 49.36,131.12   L 49.92,131.2   L 50.8,131.12   L 51.36,130.88   L 51.84,130.48   L 52.16,130   L 53.36,130.32   L 52.88,131.12   L 51.2,132   L 49.92,132.08   L 49.04,132.08   L 47.6,131.6   L 47.12,131.12   L 46.64,130.56   L 46.16,129.12   L 46.16,128.16   L 46.16,127.28   L 46.64,125.92   L 47.12,125.36   L 47.6,124.88   L 49.04,124.4   L 49.92,124.4   L 50.8,124.4   L 52.16,124.88   L 53.04,125.92   L 53.52,127.36   L 53.6,128.32   L 53.6,128.48  z    M 52.16,127.52   L 51.92,126.48   L 51.44,125.84   L 50.8,125.36   L 49.84,125.28   L 48.88,125.36   L 48.24,125.92   L 47.76,126.56   L 47.6,127.52  z    M 48.88,123.68   L 48.88,123.52   L 50.56,121.6   L 52.16,121.6   L 52.16,121.76   L 49.6,123.68  z   "
     id="path79" />
  <path
     style="fill:#000000;fill-rule:evenodd;fill-opacity:1;stroke:none;"
     d="  M 55.36,132   L 55.36,126.24   L 55.36,125.44   L 55.36,124.48   L 56.64,124.48   L 56.72,125.6   L 56.72,126   L 56.72,126   L 57.04,125.2   L 57.52,124.72   L 58,124.4   L 58.72,124.4   L 58.96,124.4   L 59.28,124.4   L 59.28,125.6   L 58.96,125.52   L 58.56,125.52   L 58.08,125.52   L 57.44,125.84   L 57.2,126.16   L 56.8,126.96   L 56.72,128.08   L 56.72,132   L 55.36,132  z "
     id="path81" />
  <path
     style="fill:#000000;fill-rule:evenodd;fill-opacity:1;stroke:none;"
     d="  M 61.68,128.48   L 61.76,129.68   L 62.24,130.48   L 62.56,130.8   L 63.44,131.12   L 64,131.2   L 64.88,131.12   L 65.44,130.88   L 65.92,130.48   L 66.16,130   L 67.44,130.32   L 66.96,131.12   L 65.28,132   L 64,132.08   L 63.12,132.08   L 61.68,131.6   L 61.2,131.12   L 60.72,130.56   L 60.24,129.12   L 60.24,128.16   L 60.24,127.28   L 60.72,125.92   L 61.2,125.36   L 61.68,124.88   L 63.12,124.4   L 63.92,124.4   L 64.8,124.4   L 66.24,124.88   L 67.12,125.92   L 67.6,127.36   L 67.6,128.32   L 67.6,128.48  z    M 66.16,127.52   L 66,126.48   L 65.52,125.84   L 64.88,125.36   L 63.92,125.28   L 62.96,125.36   L 62.32,125.92   L 61.84,126.56   L 61.68,127.52  z    M 62.96,123.68   L 62.96,123.52   L 64.64,121.6   L 66.24,121.6   L 66.24,121.76   L 63.68,123.68  z   "
     id="path83" />
  <path
     style="fill:#000000;fill-rule:evenodd;fill-opacity:1;stroke:none;"
     d="  M 70.48,128.48   L 70.56,129.68   L 71.04,130.48   L 71.36,130.8   L 72.24,131.12   L 72.8,131.2   L 73.68,131.12   L 74.24,130.88   L 74.72,130.48   L 74.96,130   L 76.24,130.32   L 75.76,131.12   L 74.08,132   L 72.8,132.08   L 71.92,132.08   L 70.48,131.6   L 70,131.12   L 69.52,130.56   L 69.04,129.12   L 69.04,128.16   L 69.04,127.28   L 69.52,125.92   L 70,125.36   L 70.48,124.88   L 71.92,124.4   L 72.72,124.4   L 73.6,124.4   L 75.04,124.88   L 75.92,125.92   L 76.4,127.36   L 76.4,128.32   L 76.4,128.48  z    M 74.96,127.52   L 74.8,126.48   L 74.32,125.84   L 73.68,125.36   L 72.72,125.28   L 71.76,125.36   L 71.12,125.92   L 70.64,126.56   L 70.48,127.52  z   "
     id="path85" />
  <path
     style="fill:#000000;fill-rule:evenodd;fill-opacity:1;stroke:none;"
     d="  M 42.64,52   L 41.44,49.12   L 36.48,49.12   L 35.2,52   L 33.68,52   L 38.16,42.24   L 39.84,42.24   L 44.16,52  z    M 38.96,43.28   L 38.88,43.44   L 38.64,44.08   L 38.32,44.96   L 36.88,48.16   L 40.96,48.16   L 39.6,44.88   L 39.36,44.4   L 39.12,43.84  z   "
     id="path87" />
  <path
     style="fill:#000000;fill-rule:evenodd;fill-opacity:1;stroke:none;"
     d="  M 45.28,52   L 45.28,41.76   L 46.64,41.76   L 46.64,52   L 45.28,52  z "
     id="path89" />
  <path
     style="fill:#000000;fill-rule:evenodd;fill-opacity:1;stroke:none;"
     d="  M 49.84,48.56   L 49.92,49.68   L 50.48,50.48   L 50.8,50.8   L 51.6,51.2   L 52.16,51.2   L 53.04,51.12   L 53.6,50.88   L 54.08,50.56   L 54.4,50.08   L 55.6,50.4   L 55.12,51.2   L 53.44,52.08   L 52.16,52.16   L 51.28,52.08   L 49.92,51.6   L 49.36,51.12   L 48.88,50.64   L 48.4,49.12   L 48.4,48.24   L 48.4,47.36   L 48.88,45.92   L 49.36,45.36   L 49.84,44.96   L 51.28,44.4   L 52.16,44.4   L 53.04,44.4   L 54.4,44.96   L 55.28,45.92   L 55.76,47.44   L 55.84,48.4   L 55.84,48.56  z    M 54.4,47.6   L 54.16,46.48   L 53.68,45.84   L 53.04,45.44   L 52.08,45.28   L 51.2,45.44   L 50.48,45.92   L 50,46.56   L 49.84,47.6  z   "
     id="path91" />
  <path
     style="fill:#000000;fill-rule:evenodd;fill-opacity:1;stroke:none;"
     d="  M 57.6,52   L 57.6,46.24   L 57.6,45.44   L 57.6,44.56   L 58.88,44.56   L 58.96,45.6   L 58.96,46.08   L 58.96,46.08   L 59.36,45.2   L 59.76,44.72   L 60.24,44.48   L 60.96,44.4   L 61.28,44.4   L 61.52,44.48   L 61.52,45.6   L 61.2,45.52   L 60.8,45.52   L 60.4,45.52   L 59.68,45.92   L 59.44,46.24   L 59.12,46.96   L 59.04,48.08   L 59.04,52   L 57.6,52  z "
     id="path93" />
  <path
     style="fill:#000000;fill-rule:evenodd;fill-opacity:1;stroke:none;"
     d="  M 66.08,51.92   L 65.36,52.08   L 64.64,52.08   L 63.92,52   L 63.04,51.2   L 62.96,50.4   L 62.96,45.44   L 62,45.44   L 62,44.56   L 63.04,44.56   L 63.44,42.88   L 64.4,42.88   L 64.4,44.56   L 65.92,44.56   L 65.92,45.44   L 64.4,45.44   L 64.4,50.16   L 64.4,50.64   L 64.56,50.88   L 64.8,51.12   L 65.28,51.12   L 65.6,51.12   L 66.08,51.04   L 66.08,51.92  z "
     id="path95" />
  <path
     style="fill:#000000;fill-rule:evenodd;fill-opacity:1;stroke:none;"
     d="  M 68.32,48.56   L 68.4,49.68   L 68.88,50.48   L 69.2,50.8   L 70.08,51.2   L 70.64,51.2   L 71.52,51.12   L 72.08,50.88   L 72.56,50.56   L 72.8,50.08   L 74.08,50.4   L 73.6,51.2   L 71.92,52.08   L 70.64,52.16   L 69.76,52.08   L 68.32,51.6   L 67.84,51.12   L 67.36,50.64   L 66.88,49.12   L 66.88,48.24   L 66.88,47.36   L 67.36,45.92   L 67.84,45.36   L 68.32,44.96   L 69.76,44.4   L 70.56,44.4   L 71.44,44.4   L 72.88,44.96   L 73.76,45.92   L 74.24,47.44   L 74.24,48.4   L 74.24,48.56  z    M 72.88,47.6   L 72.64,46.48   L 72.16,45.84   L 71.52,45.44   L 70.56,45.28   L 69.6,45.44   L 68.96,45.92   L 68.48,46.56   L 68.32,47.6  z   "
     id="path97" />
  <path
     style="fill:#000000;fill-rule:evenodd;fill-opacity:1;stroke:none;"
     d="  M 87.12,345.04   L 87.12,346.16   L 86.72,348.08   L 86.32,348.72   L 85.92,349.36   L 84.72,350   L 84,350   L 83.2,350   L 82,349.36   L 81.6,348.72   L 81.28,348.08   L 80.88,346.16   L 80.8,345.04   L 80.88,343.84   L 81.2,341.92   L 81.6,341.28   L 82,340.72   L 83.2,340.08   L 84,340   L 84.8,340.08   L 85.92,340.72   L 86.4,341.28   L 86.72,342   L 87.12,343.84  z    M 85.92,345.04   L 85.92,343.12   L 85.52,342   L 85.28,341.52   L 84.48,341.04   L 84,341.04   L 83.52,341.04   L 82.72,341.52   L 82.48,341.92   L 82.08,343.12   L 82,345.04   L 82.08,346.88   L 82.48,348.08   L 82.72,348.48   L 83.52,348.96   L 84,349.04   L 84.48,348.96   L 85.2,348.48   L 85.44,348   L 85.84,346.88  z   "
     id="path99" />
  <path
     style="fill:#000000;fill-rule:evenodd;fill-opacity:1;stroke:none;"
     d="  M 186.32,346.72   L 186.24,347.44   L 185.84,348.64   L 185.44,349.12   L 184.96,349.52   L 183.84,350   L 183.04,350   L 181.92,349.92   L 181.04,349.44   L 180.64,349.12   L 180.16,348.24   L 180,347.68   L 181.2,347.6   L 181.44,348.24   L 182.4,348.96   L 183.12,349.04   L 184,348.88   L 184.56,348.4   L 185.04,347.76   L 185.12,346.72   L 185.04,345.92   L 184.56,345.28   L 184,344.8   L 183.12,344.72   L 182.64,344.72   L 182.24,344.88   L 181.84,345.04   L 181.44,345.36   L 180.32,345.36   L 180.64,340.16   L 185.76,340.16   L 185.76,341.2   L 181.68,341.2   L 181.52,344.32   L 182.32,343.76   L 183.36,343.68   L 184,343.68   L 185.12,344.16   L 185.52,344.56   L 185.84,344.96   L 186.24,346.08   L 186.32,346.72  z "
     id="path101" />
  <path
     style="fill:#000000;fill-rule:evenodd;fill-opacity:1;stroke:none;"
     d="  M 276.24,349.92   L 276.24,348.8   L 278.56,348.8   L 278.56,341.36   L 276.56,342.88   L 276.56,341.76   L 278.72,340.16   L 279.76,340.16   L 279.76,348.8   L 282,348.8   L 282,349.92   L 276.24,349.92  z "
     id="path103" />
  <path
     style="fill:#000000;fill-rule:evenodd;fill-opacity:1;stroke:none;"
     d="  M 289.44,345.04   L 289.44,346.16   L 289.04,348.08   L 288.64,348.72   L 288.24,349.36   L 287.04,350   L 286.24,350   L 285.52,350   L 284.32,349.36   L 283.92,348.72   L 283.6,348.08   L 283.2,346.16   L 283.12,345.04   L 283.2,343.84   L 283.52,341.92   L 283.92,341.28   L 284.32,340.72   L 285.52,340.08   L 286.32,340   L 287.12,340.08   L 288.24,340.72   L 288.72,341.28   L 289.04,342   L 289.44,343.84  z    M 288.24,345.04   L 288.16,343.12   L 287.84,342   L 287.6,341.52   L 286.8,341.04   L 286.32,341.04   L 285.84,341.04   L 285.04,341.52   L 284.8,341.92   L 284.4,343.12   L 284.32,345.04   L 284.4,346.88   L 284.8,348.08   L 285.04,348.48   L 285.76,348.96   L 286.32,349.04   L 286.8,348.96   L 287.52,348.48   L 287.76,348   L 288.16,346.88  z   "
     id="path105" />
  <path
     style="fill:#000000;fill-rule:evenodd;fill-opacity:1;stroke:none;"
     d="  M 375.52,349.92   L 375.52,348.8   L 377.76,348.8   L 377.76,341.36   L 375.76,342.88   L 375.76,341.76   L 377.92,340.16   L 378.96,340.16   L 378.96,348.8   L 381.2,348.8   L 381.2,349.92   L 375.52,349.92  z "
     id="path107" />
  <path
     style="fill:#000000;fill-rule:evenodd;fill-opacity:1;stroke:none;"
     d="  M 388.64,346.72   L 388.56,347.44   L 388.16,348.64   L 387.76,349.12   L 387.28,349.52   L 386.16,350   L 385.36,350   L 384.24,349.92   L 383.36,349.44   L 382.96,349.12   L 382.48,348.24   L 382.32,347.68   L 383.52,347.6   L 383.76,348.24   L 384.72,348.96   L 385.44,349.04   L 386.32,348.88   L 386.88,348.4   L 387.36,347.76   L 387.44,346.72   L 387.28,345.92   L 386.88,345.28   L 386.32,344.8   L 385.44,344.72   L 384.96,344.72   L 384.56,344.88   L 384.16,345.04   L 383.76,345.36   L 382.64,345.36   L 382.88,340.16   L 388.08,340.16   L 388.08,341.2   L 384,341.2   L 383.84,344.32   L 384.64,343.76   L 385.68,343.68   L 386.32,343.68   L 387.36,344.16   L 387.84,344.56   L 388.16,344.96   L 388.56,346.08   L 388.64,346.72  z "
     id="path109" />
  <path
     style="fill:#000000;fill-rule:evenodd;fill-opacity:1;stroke:none;"
     d="  M 474.32,349.92   L 474.32,349.04   L 474.72,348.24   L 475.12,347.6   L 475.6,346.96   L 476.16,346.48   L 476.64,346   L 477.2,345.52   L 477.68,345.12   L 478.08,344.72   L 478.48,344.24   L 478.8,343.76   L 478.96,343.28   L 479.04,342.72   L 478.96,342   L 478.56,341.52   L 478.08,341.12   L 477.36,341.04   L 476.64,341.12   L 476.16,341.44   L 475.76,342   L 475.6,342.72   L 474.4,342.56   L 474.48,342   L 474.96,341.04   L 475.28,340.72   L 475.76,340.4   L 476.8,340.08   L 477.36,340   L 478,340.08   L 479.12,340.4   L 479.44,340.72   L 479.84,341.12   L 480.16,342.08   L 480.24,342.72   L 480.16,343.28   L 480,343.84   L 479.68,344.4   L 479.28,344.96   L 478.64,345.6   L 477.44,346.64   L 476.72,347.28   L 476.24,347.84   L 475.84,348.32   L 475.6,348.8   L 480.4,348.8   L 480.4,349.92   L 474.32,349.92  z "
     id="path111" />
  <path
     style="fill:#000000;fill-rule:evenodd;fill-opacity:1;stroke:none;"
     d="  M 487.84,345.04   L 487.84,346.16   L 487.44,348.08   L 487.04,348.72   L 486.64,349.36   L 485.44,350   L 484.72,350   L 483.92,350   L 482.72,349.36   L 482.32,348.72   L 482,348.08   L 481.6,346.16   L 481.52,345.04   L 481.6,343.84   L 481.92,341.92   L 482.32,341.28   L 482.72,340.72   L 483.92,340.08   L 484.72,340   L 485.52,340.08   L 486.64,340.72   L 487.12,341.28   L 487.44,342   L 487.84,343.84  z    M 486.64,345.04   L 486.64,343.12   L 486.24,342   L 486,341.52   L 485.2,341.04   L 484.72,341.04   L 484.24,341.04   L 483.44,341.52   L 483.2,341.92   L 482.8,343.12   L 482.72,345.04   L 482.8,346.88   L 483.2,348.08   L 483.44,348.48   L 484.24,348.96   L 484.72,349.04   L 485.2,348.96   L 485.92,348.48   L 486.24,348   L 486.56,346.88  z   "
     id="path113" />
  <path
     style="fill:#000000;fill-rule:evenodd;fill-opacity:1;stroke:#000000;stroke-width:0.95999998px;stroke-linecap:butt;stroke-linejoin:miter;stroke-miterlimit:4;stroke-dasharray:none;stroke-opacity:1;"
     d="  M 453.2,54   L 459.92,54   L 459.92,55.84   L 450.88,55.84   L 450.88,54   L 452.08,52.56   L 453.84,50.48   L 455.52,48.56   L 456.24,47.68   L 457.12,46.56   L 457.52,45.6   L 457.84,44.8   L 457.92,44   L 457.92,43.36   L 457.52,42.32   L 457.12,41.84   L 456.72,41.52   L 455.68,41.04   L 455.04,41.04   L 454.16,41.12   L 453.12,41.44   L 452.08,41.84   L 450.96,42.48   L 450.96,40.24   L 452.16,39.76   L 453.12,39.44   L 454.16,39.2   L 455.04,39.2   L 456.08,39.2   L 457.84,39.84   L 458.56,40.48   L 459.12,41.12   L 459.76,42.8   L 459.84,43.84   L 459.76,44.88   L 459.52,45.76   L 459.12,46.72   L 458.32,47.92   L 457.92,48.4   L 456.8,49.76   L 455.36,51.44   L 453.2,54  z "
     id="path115" />
  <path
     style="fill:#000000;fill-rule:evenodd;fill-opacity:1;stroke:#000000;stroke-width:0.95999998px;stroke-linecap:butt;stroke-linejoin:miter;stroke-miterlimit:4;stroke-dasharray:none;stroke-opacity:1;"
     d="  M 468.08,40.96   L 467.36,41.04   L 466.24,41.84   L 465.84,42.64   L 465.52,43.52   L 465.12,46.08   L 465.12,47.68   L 465.12,49.28   L 465.52,51.84   L 465.84,52.72   L 466.24,53.52   L 467.36,54.4   L 468.08,54.4   L 468.8,54.4   L 469.92,53.52   L 470.32,52.72   L 470.64,51.84   L 471.04,49.28   L 471.12,47.68   L 471.04,46.08   L 470.64,43.52   L 470.32,42.64   L 469.92,41.84   L 468.8,41.04  z    M 468.08,39.2   L 469.2,39.28   L 471.04,40.32   L 471.76,41.36   L 472.32,42.56   L 472.96,45.68   L 473.04,47.68   L 472.96,49.68   L 472.32,52.88   L 471.76,54   L 471.04,55.04   L 469.2,56.08   L 468.08,56.16   L 466.96,56.08   L 465.12,55.04   L 464.4,54   L 463.84,52.88   L 463.2,49.68   L 463.2,47.68   L 463.2,45.68   L 463.84,42.56   L 464.4,41.36   L 465.12,40.32   L 466.96,39.28  z   "
     id="path117" />
  <path
     style="fill:#000000;fill-rule:evenodd;fill-opacity:1;stroke:#000000;stroke-width:0.95999998px;stroke-linecap:butt;stroke-linejoin:miter;stroke-miterlimit:4;stroke-dasharray:none;stroke-opacity:1;"
     d="  M 330.56,132.48   L 333.68,132.48   L 333.68,120   L 330.24,120.8   L 330.24,118.8   L 333.68,118   L 335.6,118   L 335.6,132.48   L 338.72,132.48   L 338.72,134.4   L 330.56,134.4   L 330.56,132.48  z "
     id="path119" />
  <path
     style="fill:#000000;fill-rule:evenodd;fill-opacity:1;stroke:#000000;stroke-width:0.95999998px;stroke-linecap:butt;stroke-linejoin:miter;stroke-miterlimit:4;stroke-dasharray:none;stroke-opacity:1;"
     d="  M 347.92,119.92   L 343.04,128.64   L 347.92,128.64  z    M 347.44,118   L 349.84,118   L 349.84,128.64   L 351.84,128.64   L 351.84,130.48   L 349.84,130.48   L 349.84,134.4   L 347.92,134.4   L 347.92,130.48   L 341.52,130.48   L 341.52,128.4  z   "
     id="path121" />
  <path
     style="fill:#000000;fill-rule:evenodd;fill-opacity:1;stroke:#000000;stroke-width:0.95999998px;stroke-linecap:butt;stroke-linejoin:miter;stroke-miterlimit:4;stroke-dasharray:none;stroke-opacity:1;"
     d="  M 189.76,205.76   L 189.2,205.76   L 188.16,206.32   L 187.76,206.8   L 187.36,207.28   L 187.04,208.72   L 186.96,209.6   L 187.04,210.4   L 187.36,211.84   L 187.76,212.4   L 188.16,212.88   L 189.2,213.36   L 189.76,213.36   L 190.4,213.36   L 191.44,212.88   L 191.84,212.4   L 192.16,211.84   L 192.56,210.4   L 192.64,209.6   L 192.56,208.72   L 192.16,207.28   L 191.84,206.8   L 191.44,206.32   L 190.4,205.76  z    M 193.6,198.8   L 193.6,200.8   L 192.88,200.48   L 192.16,200.24   L 191.44,200   L 190.72,200   L 189.76,200.08   L 188.32,200.8   L 187.76,201.52   L 187.28,202.32   L 186.72,204.56   L 186.64,206   L 187.2,205.12   L 188,204.48   L 188.88,204.08   L 189.92,204   L 190.96,204.08   L 192.64,204.8   L 193.28,205.52   L 193.84,206.32   L 194.48,208.32   L 194.56,209.6   L 194.48,210.8   L 193.84,212.8   L 193.28,213.6   L 192.56,214.32   L 190.8,215.12   L 189.76,215.12   L 188.64,215.04   L 186.72,214   L 186,212.96   L 185.44,211.84   L 184.8,208.64   L 184.72,206.64   L 184.8,204.8   L 185.6,201.68   L 186.32,200.48   L 187.2,199.36   L 189.28,198.24   L 190.64,198.16   L 191.36,198.16   L 192.08,198.32   L 192.8,198.48  z   "
     id="path123" />
  <path
     style="fill:#000000;fill-rule:evenodd;fill-opacity:1;stroke:#000000;stroke-width:0.95999998px;stroke-linecap:butt;stroke-linejoin:miter;stroke-miterlimit:4;stroke-dasharray:none;stroke-opacity:1;"
     d="  M 90,294.24   L 93.12,294.24   L 93.12,281.76   L 89.76,282.56   L 89.76,280.56   L 93.12,279.76   L 95.04,279.76   L 95.04,294.24   L 98.24,294.24   L 98.24,296.16   L 90,296.16   L 90,294.24  z "
     id="path125" />
</svg>
