<?xml version="1.0" encoding="UTF-8" standalone="no"?>
<!-- Uploaded to: SVG Repo, www.svgrepo.com, Generator: SVG Repo Mixer Tools -->

<svg
   fill="#000000"
   version="1.1"
   id="Capa_1"
   width="800px"
   height="800px"
   viewBox="0 0 411.583 411.583"
   xml:space="preserve"
   sodipodi:docname="flower-with-rounded-petals-svgrepo-com.svg"
   inkscape:version="1.2.2 (1:1.2.2+202305151914+b0a8486541)"
   xmlns:inkscape="http://www.inkscape.org/namespaces/inkscape"
   xmlns:sodipodi="http://sodipodi.sourceforge.net/DTD/sodipodi-0.dtd"
   xmlns="http://www.w3.org/2000/svg"
   xmlns:svg="http://www.w3.org/2000/svg"><defs
   id="defs990" /><sodipodi:namedview
   id="namedview988"
   pagecolor="#505050"
   bordercolor="#eeeeee"
   borderopacity="1"
   inkscape:showpageshadow="0"
   inkscape:pageopacity="0"
   inkscape:pagecheckerboard="0"
   inkscape:deskcolor="#505050"
   showgrid="false"
   inkscape:zoom="0.834386"
   inkscape:cx="496.77248"
   inkscape:cy="435.05044"
   inkscape:window-width="1920"
   inkscape:window-height="1015"
   inkscape:window-x="1680"
   inkscape:window-y="0"
   inkscape:window-maximized="1"
   inkscape:current-layer="g985" />
<g
   id="g985">
	<path
   d="m 356.563,206.236 -0.771,-0.445 0.771,-0.445 c 35.87,-20.71 48.158,-66.579 27.448,-102.451 C 363.3,67.024 317.433,54.731 281.563,75.441 l -0.771,0.446 V 74.996 C 280.792,33.577 247.213,0 205.792,0 c -41.421,0 -75,33.577 -75,74.996 v 0.891 l -0.771,-0.445 C 94.15,54.733 48.283,67.025 27.572,102.896 c -20.71,35.872 -8.422,81.74 27.449,102.45 l 0.771,0.445 -0.771,0.445 C 19.15,226.946 6.862,272.814 27.572,308.685 48.283,344.558 94.15,356.849 130.021,336.14 l 0.771,-0.445 v 0.891 c 0,41.42 33.579,74.997 75,74.997 41.421,0 75,-33.576 75,-74.997 v -0.891 l 0.771,0.445 c 35.87,20.709 81.737,8.418 102.448,-27.455 20.711,-35.871 8.423,-81.739 -27.448,-102.449 z"
   id="path983"
   sodipodi:nodetypes="ccccccssscccccccccssscccc" />
</g>
</svg>
