<?xml version="1.0" encoding="UTF-8" standalone="no"?>
<svg
   version="1.0"
   width="400"
   height="600"
   viewBox="0 0 894.000000 1280.000000"
   preserveAspectRatio="xMidYMid meet"
   id="svg16"
   sodipodi:docname="herb.svg"
   inkscape:version="1.2.2 (1:1.2.2+202305151914+b0a8486541)"
   xmlns:inkscape="http://www.inkscape.org/namespaces/inkscape"
   xmlns:sodipodi="http://sodipodi.sourceforge.net/DTD/sodipodi-0.dtd"
   xmlns="http://www.w3.org/2000/svg"
   xmlns:svg="http://www.w3.org/2000/svg">
  <defs
     id="defs20" />
  <sodipodi:namedview
     id="namedview18"
     pagecolor="#505050"
     bordercolor="#eeeeee"
     borderopacity="1"
     inkscape:showpageshadow="0"
     inkscape:pageopacity="0"
     inkscape:pagecheckerboard="0"
     inkscape:deskcolor="#505050"
     showgrid="false"
     inkscape:zoom="1.5733333"
     inkscape:cx="251.37712"
     inkscape:cy="242.79661"
     inkscape:window-width="1920"
     inkscape:window-height="1015"
     inkscape:window-x="1680"
     inkscape:window-y="0"
     inkscape:window-maximized="1"
     inkscape:current-layer="g14" />
  <metadata
     id="metadata2">
Created by potrace 1.15, written by Peter Selinger 2001-2017
</metadata>
  <g
     transform="translate(0.000000,1280.000000) scale(0.100000,-0.100000)"
     fill="#000000"
     stroke="none"
     id="g14">
    <path
       d="m 5084,12768 c -106.1477,-251.092 -147.3672,-907.05 -259,-536 -233.4728,332.253 -378.9957,-349.057 -369,-113 -133.8734,-120.569 473.7647,-1069.977 102.5,-481.125 -75.1946,249.369 -435.8527,49.874 -335.5,160.125 -282.2794,215.058 -76.6147,-893.435 59.9835,-818.013 90.4475,-212.7 -50.639,-322.499 4.1951,-468.856 74.3906,-198.555 109.5107,-192.255 413.6639,-483.222 257.0746,514.698 -30.4998,-1871.3891 -310.5707,-2758.7708 -250.2244,-464.0603 -1061.4194,1214.6633 -999.2584,818.9499 97.4913,560.7037 605.369,523.7753 109.375,760.3125 15.1294,470.8027 139.2831,440.4903 -246,257 -246.4233,460.9894 -469.4177,-760.9008 -404.7656,-115.5938 56.3989,288.3734 -374.4271,745.1328 -132.2344,721.5938 -151.1928,670.5374 -763.4676,-247.0135 -480,-7 -350.2421,63.927 11.4187,-1008.1612 -240.5,-339.75 -10.6787,366.944 -393.962,960.9244 -163.5863,902.4974 -212.7222,-38.947 -925.47043,623.36 -762.4769,-559.3234 -2598.8641,48.558 319.6945,-772.5482 -872.43683,-712.424 -159.48587,-140.6225 912.24293,-1019.632 56.75,-430.25 12.1225,-288.8981 630.9996,-866.2333 536.25,-684.75 -379.5642,-22.6604 -201.1632,-442.472 -309,-283 -66.3066,-290.2564 883.07423,-176.2921 726.50633,-228.557 -296.88473,-305.3711 182.8195,-448.819 188.4937,-416.443 215.521,75.5561 851.5229,414.0612 315.25,43.75 -311.637,-333.3298 934.8667,-423.0055 725.75,-382.625 615.7822,255.9024 1828.8039,-23.1112 1823.2754,-600.729 39.0723,-478.9065 116.4863,-1921.3612 38.0585,-1446.6409 22.2562,-311.2937 268.3526,-1335.2431 134.0552,-960.3449 64.5698,-316.4372 342.8133,-1309.9513 -126.8869,-646.8733 -301.5304,482.5073 -598.3703,831.1794 -635.4687,692.7063 -0.687,-287.5921 -83.4504,311.8572 -95.875,-52.7969 90.4895,344.3474 -365.5072,747.3283 -185.9219,597.0781 -180.2452,212.7596 -215.0856,-642.1754 -247.9316,-102.5098 10.3912,353.4617 -681.5293,487.3057 -496.5684,390.0098 -209.2337,-75.4041 -265.0834,-1787.1236 -246.2812,-988.3281 -134.9129,802.9916 360.4508,264.2892 -185.3438,783.5781 -172.7633,368.8924 -241.154,-654.9017 -268.7031,-76 16.9063,451.5542 -725.0636,568.6085 -737.7969,52.125 -87.4312,-61.8223 -291.06243,-261.8984 -331,123 C 594.30043,4659.9517 514.50296,3794.2388 429.25,4204.55 48.703463,4318.8145 -72.293601,3852.0911 122.75,3923.7844 150.06011,3565.3982 342.91372,3667.1312 216.625,3480.05 677.86576,3192.3683 505.0168,2842.0187 140,3083.8 c -238.590542,-87.4757 332.52488,-365.0764 328,-474 -152.92495,-35.8521 -684.81126,-93.846 -268,-231 -144.524559,-421.2582 748.08,-263.7819 674,-264 57.36071,-110.7362 -391.85357,-205.9007 63,-315 176.9331,-341.3208 1096.886,-357.2269 896.25,-12.875 473.7562,29.5084 53.0165,-91.9638 31.75,-142.125 -173.1586,-286.8704 524.3806,-557.9208 234.125,-491.25 259.0077,59.2692 527.6693,154.7553 215.5,-140 201.8875,-293.0737 977.4493,471.6012 712.4628,161.2247 82.9213,1463.6101 429.1105,-425.7737 621.2809,501.3734 484.1464,-225.0345 46.3567,1388.9824 673.3012,948.0374 C 4807.3575,2204.9614 4471.6827,762.54231 4528.2659,201.88356 4438.1273,-78.032298 4734.0458,212.05032 4684,67 c 373.712,322.96494 161.308,826.50968 263.3193,1297.1472 -11.1309,330.4769 -58.5021,1000.5959 393.3807,805.8528 60.9294,-475.7118 212.7415,-810.8609 602.625,-1039.625 65.1645,346.5306 393.4653,187.3478 301.3906,147.5156 22.6446,201.7678 -308.2701,627.7908 20.9844,264.1094 142.0178,-269.8238 844.308,-223.9585 636,-201.625 177.179,197.0849 -412.2288,583.0803 11.7344,312.8594 228.8764,-45.8882 930.7448,271.559 622.8594,238.8156 -133.7725,229.1155 -534.2737,654.746 -357.5938,509.25 188.0779,250.7937 -349.7088,371.238 -322.5,396.625 -211.0595,-61.9772 -887.2537,-99.793 -318.748,54.1621 455.329,20.4091 811.3071,-161.212 1242.248,-167.7871 275.1358,23.437 -408.8061,511.6717 91.2812,227.4531 232.6324,-25.8713 806.0598,225.9182 591.5938,162.9219 -182.4256,111.432 475.2494,148.039 68.875,328.625 -310.534,350.4475 -820.242,292.1798 -831.7969,252.1094 339.1561,86.6367 1074.8582,471.3021 980.0469,182.8906 427.1052,231.2248 229.9822,29.1871 91,305 16.0001,240.7545 -900.4205,-36.2957 -349,145 215.2194,23.6428 587.608,431.2795 389,430 -243.4896,-36.406 -521.2629,-118.325 -110,59.875 398.9173,780.1527 -229.0487,-1402.9381 78,440.125 -183.2108,27.2263 -560.3575,0.1289 -504,-58 -256.8672,40.9267 -342.6255,-420.6393 -321,-184.9 -240.3326,-158.6288 -157.3192,406.8189 -390.0156,5.0156 C 7299.4841,5094.906 7105.4628,4296.243 7205.7,4418.4 c 96.4981,404.7381 60.3316,959.0035 -370.625,570.75 -136.6874,-233.1092 -435.0091,-560.7577 -328.375,-377.75 -350.0831,-605.4899 216.886,-825.3013 -385.75,-787.1 145.1566,284.5469 -282.2139,508.3571 -32.25,519.1 47.1659,369.0988 -241.8936,782.7709 -264,404.7 C 5367.6507,4557.3853 5198.9327,4641.0544 5382.2,4582.975 5262.4273,4391.0515 4929.3768,4201.289 5094.2257,4103.2289 5510.6089,3864.1203 4949.6346,3080.2633 4856.3896,3194.6278 4809.9858,3796.7273 4461.1904,5842.7258 4692,6423 c 594.9128,85.3595 268.9432,-655.798 757.0976,-459.1921 C 6008.784,5715.23 5214.7536,7103.9547 5670,6435 c 65.4046,-246.25 730.3913,-937.7125 555,-405.2 258.1014,-347.5303 1078.8713,-432.2378 788.125,-252.875 -134.7775,432.1355 767.3997,98.0789 514.75,227.625 -18.2058,277.2073 581.247,89.6158 476.125,191.25 422.4641,-130.3737 202.3518,429.1913 284,312 239.3864,98.8205 -569.7865,516.1696 -52.25,362.875 457.8453,-81.5336 -144.877,444.137 242,376.15 351.767,-70.593 652.0808,782.3555 137.25,764.075 -226.1575,138.8769 -965.6708,-105.0003 -761.125,-72.35 136.1174,48.0278 514.1429,207.7994 169.125,272.625 59.2487,373.7204 -609.5919,4.5998 -529.5781,192.4219 C 7320.7611,8162.9809 6909.8941,8102.1312 6746,7981.8 c 292.8103,374.6666 508.1563,713.116 218.5,710.375 C 6530.0194,8855.3818 5120.6208,7205.5274 6010,8088.8 c -32.9801,220.5403 158.4525,1153.4563 -724.8309,-182.8281 -257.472,-366.3758 -7.7224,-192.5265 -419.5597,-457.3313 -92.6292,266.1346 538.2142,2562.9144 243.7112,2237.5357 409.3136,493.4797 377.4479,-39.2588 957.9887,50.5729 291.1806,-32.1029 907.5525,146.7795 885.7943,-14.9386 588.7555,234.0656 269.9999,438.9164 230.976,496.6494 266.7996,30.599 867.685,151.524 268.2131,151.015 -170.2305,116.19 21.7548,203.953 -122.0337,399.83 583.972,575.307 165.7394,727.325 24.3807,570.523 371.0453,562.548 485.8451,584.981 -17.6397,447.172 326.276,321.936 32.3961,892.475 -95,540 -306.228,-64.2 -509.5232,205.926 -666,-232 -258.9357,-628.996 -10.1534,878.112 -413,201 -232.0752,230.809 -492.8684,-141.504 -334.9261,-260.805 -27.1965,517.297 -448.5094,-278.463 -321.6364,280.774 0.9914,305.496 -515.4745,766.816 -384.4375,484.031 z m -196,-209 c -36.2213,-37.294 -30.949,38.881 0,0 z M 1707.3884,9960.4006 c -24.8817,-37.182 -39.002,35.838 0,0 z m 525,-280 c -33.8565,-48.5265 -60.0321,57.846 0,0 z M 7877,6986.8 c 344.8571,-163.1349 -294.132,65.3054 0,0 z m -5677,-2723 c 35.8436,-126.1537 -73.5795,80.1733 0,0 z m 1200,-128 c 37.0702,-105.0575 -67.6374,64.1956 0,0 z M 7762.7,2850.3 c -21.4232,-46.0662 -31.9249,55.4242 0,0 z m -1071,-118 c -39.1456,-21.1 -9.4331,21.9329 0,0 z m 294,-917 c -50.9361,-22.0944 11.8997,53.1254 0,0 z"
       id="path4"
       sodipodi:nodetypes="ccccccacccccccccccccccccccccccccccccccccccccccccccccccccccccccccccccccccccccccccccccccccccccccccccccccccccccccccccccccccccccccccccccccccccccccc" />
    <path
       d="M7315 8970 c-3 -6 1 -13 10 -16 19 -8 30 0 20 15 -8 14 -22 14 -30 1z"
       id="path6" />
    <path
       d="M30 3344 c0 -17 22 -14 28 4 2 7 -3 12 -12 12 -9 0 -16 -7 -16 -16z"
       id="path8" />
    <path
       d="M3084 1645 c-10 -8 -14 -15 -8 -15 5 0 19 7 30 15 10 8 14 15 8 15 -5 0 -19 -7 -30 -15z"
       id="path10" />
    <path
       d="M4087 1464 c-8 -8 1 -24 14 -24 5 0 9 7 9 15 0 15 -12 20 -23 9z"
       id="path12" />
  </g>
</svg>
